<?xml version="1.0" encoding="utf-8"?>
<!-- Generator: Adobe Illustrator 16.0.0, SVG Export Plug-In . SVG Version: 6.00 Build 0)  -->
<!DOCTYPE svg PUBLIC "-//W3C//DTD SVG 1.1//EN" "http://www.w3.org/Graphics/SVG/1.1/DTD/svg11.dtd">
<svg version="1.1" id="Layer_1" xmlns="http://www.w3.org/2000/svg" xmlns:xlink="http://www.w3.org/1999/xlink" x="0px" y="0px"
	 width="192.756px" height="192.756px" viewBox="0 0 192.756 192.756" enable-background="new 0 0 192.756 192.756"
	 xml:space="preserve">
<g>
	<polygon fill-rule="evenodd" clip-rule="evenodd" fill="#FFFFFF" points="0,0 192.756,0 192.756,192.756 0,192.756 0,0 	"/>
	<path fill-rule="evenodd" clip-rule="evenodd" fill="#2E3192" d="M93.355,168.592c41.761,0,75.618-33.857,75.618-75.618
		c0-41.761-33.856-75.617-75.618-75.617c-41.762,0-75.617,33.856-75.617,75.617C17.738,134.734,51.593,168.592,93.355,168.592
		L93.355,168.592z"/>
	<path fill-rule="evenodd" clip-rule="evenodd" fill="#FFFFFF" d="M92.574,121.01c-1.562-0.346-5.989-4.34-5.989-4.34l-1.389,1.303
		c0,0,3.212,3.732,5.121,6.336L92.574,121.01L92.574,121.01z"/>
	<path fill-rule="evenodd" clip-rule="evenodd" fill="#FFFFFF" d="M71.915,136.375c0.492,0,0.89-0.398,0.89-0.891
		s-0.397-0.891-0.89-0.891c-0.492,0-0.89,0.398-0.89,0.891S71.423,136.375,71.915,136.375L71.915,136.375z"/>
	<path fill-rule="evenodd" clip-rule="evenodd" fill="#FFFFFF" d="M72.74,143.342c0.373,0,0.675-0.301,0.675-0.674
		s-0.302-0.676-0.675-0.676s-0.675,0.303-0.675,0.676S72.367,143.342,72.74,143.342L72.74,143.342z"/>
	<path fill-rule="evenodd" clip-rule="evenodd" fill="#FFFFFF" d="M104.054,136.727c0.339,0,0.613-0.273,0.613-0.613
		c0-0.338-0.274-0.613-0.613-0.613c-0.34,0-0.614,0.275-0.614,0.613C103.439,136.453,103.714,136.727,104.054,136.727
		L104.054,136.727z"/>
	<path fill-rule="evenodd" clip-rule="evenodd" fill="#FFFFFF" d="M125.254,123.783c0.237,0,0.43-0.191,0.43-0.43
		c0-0.236-0.192-0.43-0.43-0.43s-0.43,0.193-0.43,0.43C124.824,123.592,125.017,123.783,125.254,123.783L125.254,123.783z"/>
	<path fill-rule="evenodd" clip-rule="evenodd" fill="#FFFFFF" d="M125.861,132.203c0.237,0,0.43-0.191,0.43-0.43
		c0-0.236-0.192-0.43-0.43-0.43s-0.43,0.193-0.43,0.43C125.432,132.012,125.624,132.203,125.861,132.203L125.861,132.203z"/>
	<path fill-rule="evenodd" clip-rule="evenodd" fill="#FFFFFF" d="M129.833,148.135c0.492,0,0.89-0.396,0.89-0.889
		s-0.397-0.891-0.89-0.891c-0.491,0-0.891,0.398-0.891,0.891S129.342,148.135,129.833,148.135L129.833,148.135z"/>
	<path fill-rule="evenodd" clip-rule="evenodd" fill="#FFFFFF" d="M130.701,120.238c0.508,0,0.92-0.412,0.92-0.92
		c0-0.51-0.412-0.922-0.92-0.922c-0.509,0-0.921,0.412-0.921,0.922C129.78,119.826,130.192,120.238,130.701,120.238L130.701,120.238
		z"/>
	<path fill-rule="evenodd" clip-rule="evenodd" fill="#FFFFFF" d="M130.961,125.398c0.255,0,0.461-0.207,0.461-0.461
		s-0.206-0.459-0.461-0.459c-0.254,0-0.46,0.205-0.46,0.459S130.707,125.398,130.961,125.398L130.961,125.398z"/>
	<path fill-rule="evenodd" clip-rule="evenodd" fill="#FFFFFF" d="M139.576,115.59c0.254,0,0.46-0.207,0.46-0.461
		s-0.206-0.459-0.46-0.459s-0.46,0.205-0.46,0.459S139.322,115.59,139.576,115.59L139.576,115.59z"/>
	<path fill-rule="evenodd" clip-rule="evenodd" fill="#FFFFFF" d="M147.996,125.24c0.322,0,0.584-0.262,0.584-0.584
		s-0.262-0.584-0.584-0.584c-0.321,0-0.583,0.262-0.583,0.584S147.675,125.24,147.996,125.24L147.996,125.24z"/>
	<path fill-rule="evenodd" clip-rule="evenodd" fill="#FFFFFF" d="M151.78,123.447c0.423,0,0.767-0.342,0.767-0.766
		s-0.344-0.768-0.767-0.768c-0.424,0-0.768,0.344-0.768,0.768S151.356,123.447,151.78,123.447L151.78,123.447z"/>
	<path fill-rule="evenodd" clip-rule="evenodd" fill="#FFFFFF" d="M140.966,131.533c0.406,0,0.736-0.33,0.736-0.736
		s-0.33-0.736-0.736-0.736c-0.407,0-0.737,0.33-0.737,0.736S140.559,131.533,140.966,131.533L140.966,131.533z"/>
	<path fill-rule="evenodd" clip-rule="evenodd" fill="#FFFFFF" d="M148.712,135.059c0.221,0,0.399-0.178,0.399-0.398
		s-0.179-0.398-0.399-0.398c-0.22,0-0.399,0.178-0.399,0.398S148.492,135.059,148.712,135.059L148.712,135.059z"/>
	<path fill-rule="evenodd" clip-rule="evenodd" fill="#FFFFFF" d="M99.496,36.367c0.508,0,0.92-0.413,0.92-0.92
		c0-0.509-0.412-0.921-0.92-0.921c-0.509,0-0.921,0.413-0.921,0.921C98.575,35.955,98.987,36.367,99.496,36.367L99.496,36.367z"/>
	<path fill-rule="evenodd" clip-rule="evenodd" fill="#FFFFFF" d="M95.851,26.746c0.288,0,0.521-0.233,0.521-0.521
		s-0.233-0.522-0.521-0.522c-0.289,0-0.522,0.234-0.522,0.522S95.562,26.746,95.851,26.746L95.851,26.746z"/>
	<path fill-rule="evenodd" clip-rule="evenodd" fill="#FFFFFF" d="M94.96,38.64c0.17,0,0.307-0.137,0.307-0.307
		c0-0.169-0.137-0.307-0.307-0.307c-0.169,0-0.307,0.137-0.307,0.307C94.654,38.502,94.791,38.64,94.96,38.64L94.96,38.64z"/>
	<path fill-rule="evenodd" clip-rule="evenodd" fill="#FFFFFF" d="M80.573,40.049c0.373,0,0.675-0.303,0.675-0.675
		s-0.302-0.675-0.675-0.675c-0.373,0-0.675,0.302-0.675,0.675S80.201,40.049,80.573,40.049L80.573,40.049z"/>
	<path fill-rule="evenodd" clip-rule="evenodd" fill="#FFFFFF" d="M79.336,38.488c0.169,0,0.307-0.138,0.307-0.307
		s-0.138-0.307-0.307-0.307c-0.169,0-0.307,0.137-0.307,0.307S79.167,38.488,79.336,38.488L79.336,38.488z"/>
	<path fill-rule="evenodd" clip-rule="evenodd" fill="#FFFFFF" d="M109.196,52.279c0.355,0,0.645-0.289,0.645-0.645
		s-0.289-0.645-0.645-0.645c-0.356,0-0.645,0.289-0.645,0.645S108.84,52.279,109.196,52.279L109.196,52.279z"/>
	<path fill-rule="evenodd" clip-rule="evenodd" fill="#FFFFFF" d="M117.052,89.979c0,0,11.374,3.494,7.552,13.281
		c0,0-4.947,9.982-19.617,5.121l-2.994,2.691l-0.108-9.484l4.274,3.234c0,0,9.809,2.67,9.982-2.951c0,0-0.499-2.082-8.029-4.385
		c0,0-8.767-2.69-6.771-10.416c0,0,1.389-12.021,18.792-7.161l3.038-1.649l-0.043,9.2l-3.755-3.688c0,0-7.854-2.538-9.026,1.28
		C109.069,89.215,114.188,88.937,117.052,89.979L117.052,89.979z"/>
	<polygon fill-rule="evenodd" clip-rule="evenodd" fill="#FFFFFF" points="134.108,79.325 147.215,79.325 157.805,104.822 
		161.276,108.207 143.396,108.207 146.26,105.344 144.784,101.523 135.149,101.523 134.021,105.518 136.018,108.207 
		127.512,108.207 130.419,105.301 137.45,82.905 134.108,79.325 	"/>
	<polygon fill-rule="evenodd" clip-rule="evenodd" fill="#2E3192" points="143.482,97.531 139.402,87.636 136.278,97.531 
		143.482,97.531 	"/>
	<path fill-rule="evenodd" clip-rule="evenodd" fill="#FFFFFF" d="M90.958,34.361c0.508,0,0.921-0.413,0.921-0.921
		c0-0.509-0.413-0.921-0.921-0.921c-0.509,0-0.921,0.412-0.921,0.921C90.037,33.948,90.449,34.361,90.958,34.361L90.958,34.361z"/>
	<path fill-rule="evenodd" clip-rule="evenodd" fill="#FFFFFF" d="M67.413,54.808c0.355,0,0.645-0.289,0.645-0.645
		s-0.289-0.644-0.645-0.644c-0.356,0-0.645,0.288-0.645,0.644S67.057,54.808,67.413,54.808L67.413,54.808z"/>
	<path fill-rule="evenodd" clip-rule="evenodd" fill="#FFFFFF" d="M69.366,58.063c0.355,0,0.644-0.289,0.644-0.644
		c0-0.357-0.289-0.645-0.644-0.645c-0.357,0-0.645,0.288-0.645,0.645C68.721,57.774,69.009,58.063,69.366,58.063L69.366,58.063z"/>
	<path fill-rule="evenodd" clip-rule="evenodd" fill="#FFFFFF" d="M75.008,65.429c0.169,0,0.307-0.137,0.307-0.307
		c0-0.169-0.137-0.307-0.307-0.307s-0.307,0.138-0.307,0.307C74.701,65.292,74.838,65.429,75.008,65.429L75.008,65.429z"/>
	<path fill-rule="evenodd" clip-rule="evenodd" fill="#FFFFFF" d="M82.169,40.582c0.169,0,0.307-0.137,0.307-0.307
		s-0.137-0.307-0.307-0.307s-0.307,0.137-0.307,0.307S82,40.582,82.169,40.582L82.169,40.582z"/>
	<path fill-rule="evenodd" clip-rule="evenodd" fill="#FFFFFF" d="M81.301,44.27c0.288,0,0.521-0.234,0.521-0.521
		c0-0.289-0.233-0.522-0.521-0.522s-0.522,0.234-0.522,0.522C80.779,44.036,81.013,44.27,81.301,44.27L81.301,44.27z"/>
	<path fill-rule="evenodd" clip-rule="evenodd" fill="#FFFFFF" d="M92.151,40.58c0.288,0,0.521-0.233,0.521-0.521
		c0-0.288-0.233-0.522-0.521-0.522c-0.289,0-0.522,0.234-0.522,0.522C91.629,40.347,91.863,40.58,92.151,40.58L92.151,40.58z"/>
	<path fill-rule="evenodd" clip-rule="evenodd" fill="#FFFFFF" d="M98.77,44.486c0.288,0,0.521-0.233,0.521-0.521
		s-0.233-0.522-0.521-0.522s-0.522,0.234-0.522,0.522S98.481,44.486,98.77,44.486L98.77,44.486z"/>
	<path fill-rule="evenodd" clip-rule="evenodd" fill="#FFFFFF" d="M143.157,135.928c0.634,0,1.147-0.514,1.147-1.148
		c0-0.633-0.514-1.146-1.147-1.146s-1.147,0.514-1.147,1.146C142.01,135.414,142.523,135.928,143.157,135.928L143.157,135.928z"/>
	<polygon fill-rule="evenodd" clip-rule="evenodd" fill="#FFFFFF" points="142.474,133.836 143.168,131.883 143.797,133.814 
		142.474,133.836 	"/>
	<polygon fill-rule="evenodd" clip-rule="evenodd" fill="#FFFFFF" points="142.474,135.648 143.168,137.602 143.797,135.668 
		142.474,135.648 	"/>
	<polygon fill-rule="evenodd" clip-rule="evenodd" fill="#FFFFFF" points="142.224,135.484 140.271,134.791 142.202,134.16 
		142.224,135.484 	"/>
	<polygon fill-rule="evenodd" clip-rule="evenodd" fill="#FFFFFF" points="144.068,135.484 146.021,134.791 144.09,134.16 
		144.068,135.484 	"/>
	<path fill-rule="evenodd" clip-rule="evenodd" fill="#FFFFFF" d="M141.085,120c0.406,0,0.736-0.33,0.736-0.736
		s-0.33-0.736-0.736-0.736c-0.407,0-0.737,0.33-0.737,0.736S140.678,120,141.085,120L141.085,120z"/>
	<path fill-rule="evenodd" clip-rule="evenodd" fill="#FFFFFF" d="M117.323,150.055c0.406,0,0.736-0.33,0.736-0.736
		s-0.33-0.736-0.736-0.736c-0.407,0-0.736,0.33-0.736,0.736S116.916,150.055,117.323,150.055L117.323,150.055z"/>
	<path fill-rule="evenodd" clip-rule="evenodd" fill="#FFFFFF" d="M89.981,142.025c0.406,0,0.736-0.33,0.736-0.736
		s-0.331-0.736-0.736-0.736c-0.407,0-0.737,0.33-0.737,0.736S89.574,142.025,89.981,142.025L89.981,142.025z"/>
	<path fill-rule="evenodd" clip-rule="evenodd" fill="#FFFFFF" d="M64.267,142.242c0.406,0,0.736-0.328,0.736-0.736
		c0-0.406-0.33-0.736-0.736-0.736c-0.407,0-0.737,0.33-0.737,0.736C63.529,141.914,63.859,142.242,64.267,142.242L64.267,142.242z"
		/>
	<path fill-rule="evenodd" clip-rule="evenodd" fill="#FFFFFF" d="M67.196,125.398c0.271,0,0.491-0.221,0.491-0.492
		s-0.22-0.492-0.491-0.492c-0.271,0-0.492,0.221-0.492,0.492S66.924,125.398,67.196,125.398L67.196,125.398z"/>
	<path fill-rule="evenodd" clip-rule="evenodd" fill="#FFFFFF" d="M58.407,131.473c0.271,0,0.491-0.219,0.491-0.49
		s-0.22-0.492-0.491-0.492c-0.271,0-0.491,0.221-0.491,0.492S58.136,131.473,58.407,131.473L58.407,131.473z"/>
	<path fill-rule="evenodd" clip-rule="evenodd" fill="#FFFFFF" d="M69.041,111.4c0.271,0,0.491-0.221,0.491-0.49
		c0-0.271-0.22-0.492-0.491-0.492c-0.271,0-0.492,0.221-0.492,0.492C68.549,111.18,68.769,111.4,69.041,111.4L69.041,111.4z"/>
	<path fill-rule="evenodd" clip-rule="evenodd" fill="#FFFFFF" d="M38.66,125.615c0.271,0,0.491-0.221,0.491-0.492
		s-0.22-0.492-0.491-0.492c-0.271,0-0.492,0.221-0.492,0.492S38.389,125.615,38.66,125.615L38.66,125.615z"/>
	<path fill-rule="evenodd" clip-rule="evenodd" fill="#FFFFFF" d="M46.798,126.375c0.271,0,0.491-0.221,0.491-0.492
		s-0.22-0.492-0.491-0.492c-0.271,0-0.492,0.221-0.492,0.492S46.526,126.375,46.798,126.375L46.798,126.375z"/>
	<path fill-rule="evenodd" clip-rule="evenodd" fill="#FFFFFF" d="M45.279,130.354c0.492,0,0.889-0.398,0.889-0.891
		c0-0.49-0.397-0.891-0.889-0.891s-0.891,0.4-0.891,0.891C44.388,129.955,44.787,130.354,45.279,130.354L45.279,130.354z"/>
	<path fill-rule="evenodd" clip-rule="evenodd" fill="#FFFFFF" d="M48.1,133.717c0.492,0,0.89-0.398,0.89-0.889
		c0-0.492-0.398-0.891-0.89-0.891s-0.89,0.398-0.89,0.891C47.209,133.318,47.608,133.717,48.1,133.717L48.1,133.717z"/>
	<path fill-rule="evenodd" clip-rule="evenodd" fill="#ED1C24" d="M161.167,50.246c13.607-11.218,24.813-20.875,28.754-28.189
		c0,0-8.636,28.906-48.998,59.112c0,0-61.629,42.056-78.469,53.861c0,0-15.538,10.979-28.731,27.992l-0.304-2.777
		c0,0,9.879-14.537,32.377-30.424c19.791-13.975,27.169-18.662,27.169-18.662s47.008-29.421,56.724-42.229
		c0,0-33.722,19.357-91.878,30.598c0,0-26.908,6.771-44.485,17.75h-2.431c0,0,15.342-13.041,50.93-23.154
		C61.824,94.123,122.043,76.243,161.167,50.246L161.167,50.246z"/>
	<polygon fill-rule="evenodd" clip-rule="evenodd" fill="#FFFFFF" points="31.162,79.433 43.314,79.433 53.73,96.967 53.73,81.603 
		51.821,79.433 59.459,79.433 57.55,82.384 57.55,105.213 60.327,108.25 48.175,108.25 37.781,90.261 37.781,105.32 40.016,108.293 
		30.815,108.293 33.419,105.125 33.419,82.904 31.162,79.433 	"/>
	<polygon fill-rule="evenodd" clip-rule="evenodd" fill="#FFFFFF" points="71.655,79.389 85.087,79.389 94.701,104.887 
		98.173,108.271 80.943,108.271 83.807,105.408 82.332,101.588 72.696,101.588 72.11,105.582 74.107,108.271 65.058,108.271 
		68.291,105.363 74.997,82.97 71.655,79.389 	"/>
	<polygon fill-rule="evenodd" clip-rule="evenodd" fill="#2E3192" points="81.029,97.596 76.949,87.7 73.825,97.596 81.029,97.596 	
		"/>
	<polygon fill-rule="evenodd" clip-rule="evenodd" fill="#ED1C24" points="76.472,89.372 77.503,88.992 79.782,94.581 
		74.356,95.936 76.472,89.372 	"/>
	<path fill-rule="evenodd" clip-rule="evenodd" fill="#FFFFFF" d="M101.645,91.325c0,0-3.038-8.246,6.076-11.284
		c0,0,4.34-3.472,13.454,0l1.996-1.78v9.2c0,0-4.166-4.382-7.204-4.816s-6.076,0.434-5.643,4.773L101.645,91.325L101.645,91.325z"/>
	<path fill="#FFFFFF" d="M108.508,134.699c4.467,2.641,8.771,4.295,12.548,4.805c3.594,0.484,6.7-0.066,8.993-1.793
		c0.299-0.225,0.586-0.469,0.86-0.73c10.797-10.299-2.077-44.302-22.165-65.364l-0.015-0.017c-0.006-0.006-1.862-2.154-3.126-3.418
		l0.676-0.675c1.197,1.198,2.977,3.248,3.154,3.454c0.001,0.001,0.002,0.001,0.002,0.002c0,0-0.001-0.001-0.002-0.002l0.002,0.002
		c20.393,21.381,33.28,56.072,22.13,66.707c-0.295,0.281-0.61,0.549-0.946,0.801c-2.504,1.887-5.85,2.494-9.69,1.977
		c-3.905-0.527-8.332-2.223-12.905-4.926L108.508,134.699L108.508,134.699z M109.443,70.971c0.003,0.004,0.006,0.006,0.006,0.006
		L109.443,70.971L109.443,70.971z"/>
	<path fill="#FFFFFF" d="M107.752,70.607c-0.169-0.201-0.316-0.375-0.448-0.53h0.003c-0.168-0.197-0.32-0.375-0.453-0.529
		c-9.689-11.238-18.096-18.063-25.189-21.629c-8.262-4.154-14.701-3.859-19.277-0.972c-3.958,2.498-5.459,9.728-2.794,20.814
		c2.25,9.363,7.477,21.407,16.702,35.613l-0.015-0.023c0.024,0.033,8.468,11.693,9.393,12.387l-0.648,0.865
		c-1.071-0.803-9.597-12.584-9.621-12.617l-0.015-0.023c-9.3-14.321-14.575-26.483-16.85-35.951
		c-2.785-11.589-1.07-19.239,3.274-21.98c4.884-3.082,11.689-3.431,20.336,0.917c7.211,3.625,15.733,10.536,25.523,21.893
		c0.172,0.198,0.323,0.375,0.457,0.533h0.002c0.17,0.199,0.323,0.379,0.453,0.534L107.752,70.607L107.752,70.607z"/>
	<path fill-rule="evenodd" clip-rule="evenodd" fill="#FFFFFF" d="M90.794,124.865c2.11,1.809,4.429,2.566,5.179,1.691
		s-0.353-3.051-2.463-4.859c-2.111-1.811-4.429-2.566-5.179-1.691C87.581,120.881,88.684,123.057,90.794,124.865L90.794,124.865z"/>
	<path fill-rule="evenodd" clip-rule="evenodd" fill="#FFFFFF" d="M110.609,36.658c0.792,0,1.435-0.643,1.435-1.435
		c0-0.792-0.643-1.436-1.435-1.436s-1.435,0.644-1.435,1.436C109.175,36.015,109.817,36.658,110.609,36.658L110.609,36.658z"/>
	<polygon fill-rule="evenodd" clip-rule="evenodd" fill="#FFFFFF" points="109.755,34.044 110.623,28.998 111.409,34.016 
		109.755,34.044 	"/>
	<polygon fill-rule="evenodd" clip-rule="evenodd" fill="#FFFFFF" points="109.755,36.308 110.623,41.354 111.409,36.335 
		109.755,36.308 	"/>
	<polygon fill-rule="evenodd" clip-rule="evenodd" fill="#FFFFFF" points="109.443,36.105 104.181,35.237 109.416,34.45 
		109.443,36.105 	"/>
	<polygon fill-rule="evenodd" clip-rule="evenodd" fill="#FFFFFF" points="111.749,36.105 117.228,35.237 111.775,34.45 
		111.749,36.105 	"/>
	<path fill-rule="evenodd" clip-rule="evenodd" fill="#FFFFFF" d="M75.387,56.941c0.792,0,1.435-0.643,1.435-1.435
		c0-0.792-0.643-1.435-1.435-1.435c-0.792,0-1.435,0.643-1.435,1.435C73.953,56.298,74.595,56.941,75.387,56.941L75.387,56.941z"/>
	<polygon fill-rule="evenodd" clip-rule="evenodd" fill="#FFFFFF" points="74.533,54.327 75.401,49.281 76.188,54.299 
		74.533,54.327 	"/>
	<polygon fill-rule="evenodd" clip-rule="evenodd" fill="#FFFFFF" points="74.533,56.591 75.401,61.636 76.188,56.618 
		74.533,56.591 	"/>
	<polygon fill-rule="evenodd" clip-rule="evenodd" fill="#FFFFFF" points="74.221,56.388 68.958,55.52 74.193,54.733 74.221,56.388 
			"/>
	<polygon fill-rule="evenodd" clip-rule="evenodd" fill="#FFFFFF" points="76.527,56.388 82.006,55.52 76.554,54.733 76.527,56.388 
			"/>
	<path fill-rule="evenodd" clip-rule="evenodd" fill="#FFFFFF" d="M67.426,152.32c0.792,0,1.435-0.643,1.435-1.436
		c0-0.791-0.642-1.434-1.435-1.434c-0.792,0-1.435,0.643-1.435,1.434C65.992,151.678,66.634,152.32,67.426,152.32L67.426,152.32z"/>
	<polygon fill-rule="evenodd" clip-rule="evenodd" fill="#FFFFFF" points="66.572,149.705 67.439,144.66 68.227,149.678 
		66.572,149.705 	"/>
	<polygon fill-rule="evenodd" clip-rule="evenodd" fill="#FFFFFF" points="66.572,151.971 67.439,157.016 68.227,151.998 
		66.572,151.971 	"/>
	<polygon fill-rule="evenodd" clip-rule="evenodd" fill="#FFFFFF" points="66.26,151.768 60.998,150.898 66.232,150.111 
		66.26,151.768 	"/>
	<polygon fill-rule="evenodd" clip-rule="evenodd" fill="#FFFFFF" points="68.565,151.768 74.045,150.898 68.593,150.111 
		68.565,151.768 	"/>
	<path fill-rule="evenodd" clip-rule="evenodd" fill="#FFFFFF" d="M150.104,119.77c0.792,0,1.436-0.643,1.436-1.436
		c0-0.791-0.644-1.434-1.436-1.434s-1.435,0.643-1.435,1.434C148.669,119.127,149.312,119.77,150.104,119.77L150.104,119.77z"/>
	<polygon fill-rule="evenodd" clip-rule="evenodd" fill="#FFFFFF" points="149.25,117.154 150.117,112.109 150.904,117.129 
		149.25,117.154 	"/>
	<polygon fill-rule="evenodd" clip-rule="evenodd" fill="#FFFFFF" points="149.25,119.42 150.117,124.465 150.904,119.447 
		149.25,119.42 	"/>
	<polygon fill-rule="evenodd" clip-rule="evenodd" fill="#FFFFFF" points="148.938,119.217 143.675,118.348 148.91,117.562 
		148.938,119.217 	"/>
	<polygon fill-rule="evenodd" clip-rule="evenodd" fill="#FFFFFF" points="151.243,119.217 156.722,118.348 151.271,117.562 
		151.243,119.217 	"/>
</g>
</svg>
